<svg width="36" height="42" viewBox="0 0 36 42" fill="none" xmlns="http://www.w3.org/2000/svg">
<path fill-rule="evenodd" clip-rule="evenodd" d="M7.81408 11.0224V10.7645C7.81408 6.10108 10.9713 2.02929 15.4878 0.867915C17.1572 0.438641 18.908 0.438641 20.5774 0.867915C25.0939 2.02929 28.2511 6.10109 28.2511 10.7645V11.0224H31.4804C32.7094 11.0224 33.7525 11.9237 33.9306 13.1397L34.401 16.3504C35.3273 22.6718 35.3273 29.0944 34.401 35.4158C33.9538 38.4686 31.4921 40.8286 28.4232 41.1469L27.0703 41.2872C21.0613 41.9103 15.0039 41.9103 8.99484 41.2872L7.64197 41.1469C4.5731 40.8286 2.11143 38.4686 1.66414 35.4158C0.737929 29.0944 0.737929 22.6718 1.66414 16.3504L2.13457 13.1397C2.31274 11.9237 3.35577 11.0224 4.58475 11.0224H7.81408ZM16.2914 3.99315C17.4336 3.69943 18.6316 3.69943 19.7738 3.99315C22.864 4.78777 25.0242 7.57374 25.0242 10.7645V11.0224H11.041V10.7645C11.041 7.57373 13.2012 4.78777 16.2914 3.99315ZM7.81408 14.2493V19.0896C7.81408 19.9807 8.53644 20.7031 9.42753 20.7031C10.3186 20.7031 11.041 19.9807 11.041 19.0896V14.2493H25.0242V19.0896C25.0242 19.9807 25.7466 20.7031 26.6377 20.7031C27.5288 20.7031 28.2511 19.9807 28.2511 19.0896V14.2493H30.8318L31.2082 16.8182C32.089 22.8294 32.089 28.9368 31.2082 34.948C30.9749 36.5402 29.691 37.7712 28.0904 37.9372L26.7375 38.0775C20.9497 38.6777 15.1154 38.6777 9.3277 38.0775L7.97483 37.9372C6.37419 37.7712 5.09025 36.5402 4.85695 34.948C3.97619 28.9368 3.97619 22.8294 4.85696 16.8182L5.23335 14.2493H7.81408Z" fill="#10BB87"/>
</svg>
