<svg width="14" height="10" viewBox="0 0 14 10" fill="none" xmlns="http://www.w3.org/2000/svg">
<path fill-rule="evenodd" clip-rule="evenodd" d="M13.4584 4.99992C13.4584 4.65474 13.1785 4.37492 12.8334 4.37492H1.16669C0.821509 4.37492 0.541687 4.65474 0.541687 4.99992C0.541687 5.3451 0.821509 5.62492 1.16669 5.62492H12.8334C13.1785 5.62492 13.4584 5.3451 13.4584 4.99992Z" fill="black"/>
<path fill-rule="evenodd" clip-rule="evenodd" d="M13.4584 0.833252C13.4584 0.488074 13.1785 0.208252 12.8334 0.208252H1.16669C0.821509 0.208252 0.541687 0.488074 0.541687 0.833252C0.541687 1.17843 0.821509 1.45825 1.16669 1.45825H12.8334C13.1785 1.45825 13.4584 1.17843 13.4584 0.833252Z" fill="black"/>
<path fill-rule="evenodd" clip-rule="evenodd" d="M13.4584 9.16659C13.4584 8.82141 13.1785 8.54159 12.8334 8.54159H1.16669C0.821509 8.54159 0.541687 8.82141 0.541687 9.16659C0.541687 9.51176 0.821509 9.79159 1.16669 9.79159H12.8334C13.1785 9.79159 13.4584 9.51176 13.4584 9.16659Z" fill="black"/>
</svg>
