<svg width="12" height="11" viewBox="0 0 12 11" fill="none" xmlns="http://www.w3.org/2000/svg">
<path d="M3.33332 4.33336C2.87309 4.33336 2.49999 4.70645 2.49999 5.16669C2.49999 5.62693 2.87309 6.00003 3.33332 6.00003C3.79356 6.00003 4.16666 5.62693 4.16666 5.16669C4.16666 4.70645 3.79356 4.33336 3.33332 4.33336Z" fill="black"/>
<path d="M5.99999 4.33336C5.53975 4.33336 5.16666 4.70645 5.16666 5.16669C5.16666 5.62693 5.53975 6.00003 5.99999 6.00003C6.46023 6.00003 6.83332 5.62693 6.83332 5.16669C6.83332 4.70645 6.46023 4.33336 5.99999 4.33336Z" fill="black"/>
<path d="M7.83332 5.16669C7.83332 4.70645 8.20642 4.33336 8.66666 4.33336C9.12689 4.33336 9.49999 4.70645 9.49999 5.16669C9.49999 5.62693 9.12689 6.00003 8.66666 6.00003C8.20642 6.00003 7.83332 5.62693 7.83332 5.16669Z" fill="black"/>
<path fill-rule="evenodd" clip-rule="evenodd" d="M8.73381 1.06189C6.93768 0.908713 5.13217 0.899824 3.33462 1.0353L3.2058 1.04501C1.49159 1.17421 0.166656 2.60277 0.166656 4.32183V10C0.166656 10.1759 0.2591 10.3389 0.410089 10.4292C0.561077 10.5194 0.748394 10.5237 0.903349 10.4405L3.51054 9.03931C3.63182 8.97414 3.76735 8.94003 3.90503 8.94003H9.8893C10.644 8.94003 11.2908 8.40043 11.4261 7.65793C11.7003 6.15311 11.722 4.61313 11.4902 3.10119L11.4219 2.65564C11.2976 1.84447 10.634 1.22393 9.8163 1.1542L8.73381 1.06189ZM3.40977 2.03248C5.15401 1.90101 6.90598 1.90964 8.64884 2.05827L9.73133 2.15058C10.0889 2.18108 10.3791 2.45244 10.4334 2.80715L10.5017 3.2527C10.7167 4.65489 10.6966 6.08309 10.4423 7.47868C10.3936 7.74586 10.1609 7.94003 9.8893 7.94003H3.90503C3.60214 7.94003 3.30396 8.01507 3.03716 8.15846L1.16666 9.16369V4.32183C1.16666 3.1259 2.0884 2.13207 3.28095 2.04219L3.40977 2.03248Z" fill="black"/>
</svg>
