<svg width="52" height="53" viewBox="0 0 52 53" fill="none" xmlns="http://www.w3.org/2000/svg">
<path fill-rule="evenodd" clip-rule="evenodd" d="M13.1068 7.04148C13.1976 6.22437 13.8882 5.6062 14.7104 5.6062H37.3553C38.1774 5.6062 38.8681 6.22437 38.9589 7.04148L39.3895 10.9167C39.4345 11.322 39.4769 11.6752 39.5168 12.0068C39.6795 13.3607 39.7988 14.3538 39.8748 17.0665L36.616 16.0547C36.5486 14.0308 36.4554 13.3537 36.3364 12.4888C36.2891 12.1452 36.2377 11.772 36.1823 11.273L35.9112 8.8331H16.1545L15.8834 11.273C15.1292 18.0608 15.1292 33.3874 15.8833 40.1751L15.9257 40.5566C16.0727 41.879 17.0976 42.9335 18.4153 43.118C23.469 43.8255 28.5966 43.8255 33.6503 43.118C34.968 42.9335 35.9929 41.879 36.1399 40.5566L36.1823 40.1751C36.2571 39.5014 36.3246 36.1898 36.3846 35.324L39.6313 35.1247C39.5614 36.2083 39.4807 39.7096 39.3894 40.5315L39.347 40.913C39.0372 43.7013 36.8762 45.9247 34.0977 46.3137C28.7472 47.0628 23.3184 47.0628 17.9679 46.3137C15.1894 45.9247 13.0284 43.7013 12.7186 40.913L12.6762 40.5315C11.8957 33.5069 11.8957 17.9412 12.6762 10.9167L13.1068 7.04148Z" fill="#10BB87"/>
<path fill-rule="evenodd" clip-rule="evenodd" d="M38.4733 19.973C36.6639 18.9887 34.4004 18.9056 32.8621 19.1728C31.9842 19.3252 31.1489 18.7371 30.9964 17.8592C30.8439 16.9812 31.4321 16.1459 32.31 15.9935C34.3159 15.6451 37.3752 15.7021 40.0153 17.1384C42.7968 18.6515 44.8672 21.5668 44.8959 26.3598C44.91 28.7148 44.4243 30.646 43.5348 32.1886C42.642 33.7368 41.3946 34.8026 40.0342 35.4998C37.3722 36.864 34.2828 36.8246 32.2678 36.4192C31.3942 36.2435 30.8285 35.3928 31.0043 34.5193C31.18 33.6457 32.0307 33.08 32.9043 33.2557C34.476 33.5719 36.7603 33.5517 38.5625 32.628C39.4343 32.1813 40.1917 31.5264 40.7393 30.5767C41.2902 29.6213 41.6804 28.2773 41.6691 26.3791C41.6468 22.666 40.1412 20.8803 38.4733 19.973Z" fill="#10BB87"/>
<path fill-rule="evenodd" clip-rule="evenodd" d="M33.7638 25.4088C33.5281 25.2805 33.147 25.247 32.8621 25.2965C31.9842 25.4489 31.1489 24.8608 30.9964 23.9829C30.8439 23.1049 31.4321 22.2696 32.31 22.1171C33.0625 21.9865 34.2393 21.994 35.3059 22.5742C36.5138 23.2313 37.3195 24.4841 37.3302 26.2688C37.3353 27.1196 37.1594 27.8926 36.7792 28.5517C36.3959 29.2165 35.8575 29.6738 35.2865 29.9664C34.2034 30.5215 33.0143 30.4889 32.2678 30.3387C31.3942 30.163 30.8285 29.3123 31.0043 28.4387C31.18 27.5652 32.0307 26.9995 32.9043 27.1752C33.0273 27.2 33.204 27.2158 33.3895 27.2008C33.5757 27.1856 33.719 27.1438 33.8148 27.0947C33.8972 27.0525 33.9456 27.0061 33.9838 26.9398C34.0253 26.8679 34.1057 26.6822 34.1034 26.2881C34.101 25.8929 34.0188 25.6931 33.9674 25.6034C33.9184 25.5178 33.8557 25.4588 33.7638 25.4088Z" fill="#10BB87"/>
</svg>
