<svg width="10" height="18" viewBox="0 0 10 18" fill="none" xmlns="http://www.w3.org/2000/svg">
<path fill-rule="evenodd" clip-rule="evenodd" d="M3.73978 2.15641C4.56025 1.33594 5.67305 0.875 6.83337 0.875H9.08337C9.42855 0.875 9.70837 1.15482 9.70837 1.5V4.5C9.70837 4.84518 9.42855 5.125 9.08337 5.125H6.83337C6.80022 5.125 6.76843 5.13817 6.74499 5.16161C6.72154 5.18505 6.70837 5.21685 6.70837 5.25V6.875H9.08337C9.27583 6.875 9.45756 6.96367 9.576 7.11537C9.69444 7.26706 9.73639 7.46487 9.68971 7.65158L8.93971 10.6516C8.87016 10.9298 8.62017 11.125 8.33337 11.125H6.70837V16.5C6.70837 16.8452 6.42855 17.125 6.08337 17.125H3.08337C2.7382 17.125 2.45837 16.8452 2.45837 16.5V11.125H0.833374C0.488196 11.125 0.208374 10.8452 0.208374 10.5V7.5C0.208374 7.15482 0.488196 6.875 0.833374 6.875H2.45837V5.25C2.45837 4.08968 2.91931 2.97688 3.73978 2.15641ZM6.83337 2.125C6.00457 2.125 5.20972 2.45424 4.62367 3.04029C4.03761 3.62634 3.70837 4.4212 3.70837 5.25V7.5C3.70837 7.84518 3.42855 8.125 3.08337 8.125H1.45837V9.875H3.08337C3.42855 9.875 3.70837 10.1548 3.70837 10.5V15.875H5.45837V10.5C5.45837 10.1548 5.7382 9.875 6.08337 9.875H7.84539L8.28289 8.125H6.08337C5.7382 8.125 5.45837 7.84518 5.45837 7.5V5.25C5.45837 4.88533 5.60324 4.53559 5.8611 4.27773C6.11896 4.01987 6.4687 3.875 6.83337 3.875H8.45837V2.125H6.83337Z" fill="#487B6C"/>
</svg>
