<svg width="38" height="42" viewBox="0 0 38 42" fill="none" xmlns="http://www.w3.org/2000/svg">
<path fill-rule="evenodd" clip-rule="evenodd" d="M6.66285 7.25761C6.66285 3.39625 9.7931 0.265991 13.6545 0.265991C15.817 0.265991 17.7502 1.24776 19.0326 2.78989C20.3151 1.24776 22.2483 0.265991 24.4108 0.265991C28.2722 0.265991 31.4024 3.39625 31.4024 7.25761C31.4024 8.64372 30.9991 9.93562 30.3033 11.0223H31.9402C35.2076 11.0223 37.8562 13.671 37.8562 16.9383V21.2409C37.8562 22.9708 36.6894 24.4282 35.0998 24.869C35.4097 28.7985 35.2302 32.7537 34.5637 36.6433C34.1657 38.966 32.2793 40.7453 29.9374 41.007L27.9701 41.2269C22.0303 41.8907 16.035 41.8907 10.0952 41.2269L8.12788 41.007C5.78597 40.7453 3.8996 38.966 3.50159 36.6433C2.83507 32.7537 2.65556 28.7985 2.96548 24.869C1.37589 24.4282 0.209045 22.9708 0.209045 21.2409V16.9383C0.209045 13.671 2.85772 11.0223 6.12503 11.0223H7.76195C7.06621 9.93562 6.66285 8.64372 6.66285 7.25761ZM17.4192 7.25761C17.4192 5.17842 15.7337 3.49289 13.6545 3.49289C11.5753 3.49289 9.88975 5.17842 9.88975 7.25761C9.88975 9.33681 11.5753 11.0223 13.6545 11.0223C15.7337 11.0223 17.4192 9.33681 17.4192 7.25761ZM24.4108 11.0223C26.49 11.0223 28.1755 9.33681 28.1755 7.25761C28.1755 5.17842 26.49 3.49289 24.4108 3.49289C22.3316 3.49289 20.6461 5.17842 20.6461 7.25761C20.6461 9.33681 22.3316 11.0223 24.4108 11.0223ZM3.43595 16.9383C3.43595 15.4532 4.63989 14.2492 6.12503 14.2492H17.4192V21.7787H3.97376C3.67674 21.7787 3.43595 21.5379 3.43595 21.2409V16.9383ZM20.6461 25.0056H31.8735C32.1753 28.707 32.0111 32.4339 31.3832 36.0983C31.2279 37.0041 30.4923 37.698 29.579 37.8001L27.6117 38.0199C25.2962 38.2787 22.972 38.4324 20.6461 38.481V25.0056ZM20.6461 21.7787H34.0915C34.3885 21.7787 34.6293 21.5379 34.6293 21.2409V16.9383C34.6293 15.4532 33.4254 14.2492 31.9402 14.2492H20.6461V21.7787ZM17.4192 25.0056V38.481C15.0933 38.4324 12.769 38.2787 10.4536 38.0199L8.4863 37.8001C7.573 37.698 6.83735 37.0041 6.68214 36.0983C6.0542 32.4339 5.88998 28.707 6.19179 25.0056H17.4192Z" fill="#10BB87"/>
</svg>
