<svg width="35" height="36" viewBox="0 0 35 36" fill="none" xmlns="http://www.w3.org/2000/svg">
<path fill-rule="evenodd" clip-rule="evenodd" d="M28.1183 27.5975L28.4998 27.5551C30.7061 27.31 32.5588 25.9058 33.4287 23.9537C33.6582 23.4388 33.8193 22.8858 33.9005 22.3058C34.6496 16.9553 34.6496 11.5265 33.9005 6.17597C33.8193 5.59602 33.6582 5.04298 33.4287 4.52806C32.5593 2.57725 30.7085 1.17357 28.5039 0.927119L28.4998 0.926657L28.1183 0.884271C21.0937 0.103761 14.0043 0.103761 6.97968 0.88427L6.59819 0.926658C3.80981 1.23648 1.58642 3.39752 1.19744 6.17596C0.448368 11.5265 0.448367 16.9553 1.19744 22.3058C1.58642 25.0843 3.80981 27.2453 6.59819 27.5551L6.97968 27.5975L10.0038 27.8517L10.0038 33.6C10.0038 34.4911 10.7262 35.2134 11.6172 35.2134C12.5083 35.2134 13.2307 34.4911 13.2307 33.6L13.2307 28.171C14.3026 28.2463 15.3793 28.2964 16.4576 28.3215L16.4576 31.4487C16.4576 32.3398 17.18 33.0622 18.071 33.0622C18.9621 33.0622 19.6845 32.3398 19.6845 31.4487L19.6845 28.3215C20.7628 28.2964 21.8395 28.2463 22.9114 28.171L22.9114 33.6C22.9114 34.4911 23.6338 35.2134 24.5248 35.2134C25.4159 35.2134 26.1383 34.4911 26.1383 33.6L26.1383 27.8517L28.1183 27.5975ZM27.7619 4.09143C20.9742 3.33724 14.1238 3.33724 7.33603 4.09143L6.95455 4.13382C5.63212 4.28076 4.57765 5.30566 4.39318 6.62337C3.68566 11.6771 3.68565 16.8047 4.39318 21.8584C4.57765 23.1761 5.63212 24.201 6.95454 24.348L7.33603 24.3903C12.1092 24.9238 22.9888 24.9238 27.7619 24.3904L28.1434 24.348C28.9937 24.2535 29.7331 23.7961 30.2018 23.1313C30.4621 22.7621 30.6389 22.3289 30.7048 21.8584C31.4123 16.8047 31.4123 11.6771 30.7048 6.62337C30.6389 6.15287 30.4621 5.71969 30.2018 5.35049C29.7331 4.68569 28.9937 4.2283 28.1434 4.13383L27.7619 4.09143Z" fill="#10BB87"/>
</svg>
