<svg width="16" height="16" viewBox="0 0 16 16" fill="none" xmlns="http://www.w3.org/2000/svg">
<path d="M11.3333 3.83329C11.3333 3.37305 11.7064 2.99996 12.1667 2.99996C12.6269 2.99996 13 3.37305 13 3.83329C13 4.29353 12.6269 4.66662 12.1667 4.66662C11.7064 4.66662 11.3333 4.29353 11.3333 3.83329Z" fill="#487B6C"/>
<path fill-rule="evenodd" clip-rule="evenodd" d="M7.99999 4.04162C5.81386 4.04162 4.04166 5.81383 4.04166 7.99996C4.04166 10.1861 5.81386 11.9583 7.99999 11.9583C10.1861 11.9583 11.9583 10.1861 11.9583 7.99996C11.9583 5.81383 10.1861 4.04162 7.99999 4.04162ZM5.29166 7.99996C5.29166 6.50419 6.50422 5.29162 7.99999 5.29162C9.49576 5.29162 10.7083 6.50419 10.7083 7.99996C10.7083 9.49573 9.49576 10.7083 7.99999 10.7083C6.50422 10.7083 5.29166 9.49573 5.29166 7.99996Z" fill="#487B6C"/>
<path fill-rule="evenodd" clip-rule="evenodd" d="M12.3819 0.360803C9.49306 0.0379355 6.50694 0.0379355 3.61813 0.360803C1.94142 0.5482 0.587806 1.86904 0.390678 3.55448C0.0452297 6.50807 0.0452297 9.49185 0.390678 12.4454C0.587806 14.1309 1.94142 15.4517 3.61813 15.6391C6.50695 15.962 9.49306 15.962 12.3819 15.6391C14.0586 15.4517 15.4122 14.1309 15.6093 12.4454C15.9548 9.49185 15.9548 6.50806 15.6093 3.55448C15.4122 1.86904 14.0586 0.5482 12.3819 0.360803ZM3.75697 1.60307C6.55351 1.29051 9.44649 1.29051 12.243 1.60307C13.3515 1.72695 14.2394 2.60163 14.3678 3.69969C14.7019 6.5568 14.7019 9.44311 14.3678 12.3002C14.2394 13.3983 13.3514 14.273 12.243 14.3968C9.44649 14.7094 6.55351 14.7094 3.75697 14.3968C2.64855 14.273 1.76064 13.3983 1.63222 12.3002C1.29805 9.44311 1.29805 6.5568 1.63222 3.69969C1.76064 2.60163 2.64855 1.72695 3.75697 1.60307Z" fill="#487B6C"/>
</svg>
