<svg width="90" height="54" viewBox="0 0 90 54" fill="none" xmlns="http://www.w3.org/2000/svg">
<path d="M9.3125 54.1302H80.2548L44.9719 18.8076L9.3125 54.1302Z" fill="black" fill-opacity="0.07"/>
<path d="M7.95696 52.3935L13.484 46.9955L11.643 45.1052L8.17153 48.4971L2.05607 42.2198L0 44.228L7.95696 52.3935Z" fill="#487B6C"/>
<path d="M14.6972 45.7657L20.3605 40.2329L18.8052 38.6379L15.2093 42.1498L13.4825 40.3775L16.3641 37.5629L14.7366 35.8941L11.8551 38.7071L10.3756 37.1891L13.8533 33.7916L12.299 32.1971L6.65369 37.7115L14.6972 45.7657Z" fill="#487B6C"/>
<path d="M33.2335 19.5366C30.9496 17.1926 26.9875 17.4731 25.0794 19.3372C23.1708 21.2013 22.1968 24.9182 24.892 27.6841C27.8524 30.7217 31.3746 29.6184 33.2832 27.7554C36.0972 25.0069 35.0955 21.4474 33.2335 19.5366ZM31.5549 26.1502C30.2915 27.3842 28.7471 27.0494 26.9824 25.2381C25.4993 23.7165 25.5884 22.1877 26.6669 21.1341C27.4084 20.4097 28.9145 19.7617 30.7063 21.6006C32.7506 23.6985 32.8182 24.9161 31.5549 26.1502Z" fill="#487B6C"/>
<path d="M39.6035 21.4833L41.6929 19.4418L38.5496 16.2165L36.6682 8.3797L34.2731 10.7196L35.5191 15.1655L31.3096 13.6136L29.0513 15.8192L36.2278 18.1263L39.6035 21.4833Z" fill="#487B6C"/>
<path d="M28.4634 32.3767C28.4634 32.3767 23.3783 30.6398 23.1366 30.6818C23.0582 30.6946 24.2289 27.576 21.5988 26.1938C21.5988 26.1938 19.6472 25.1362 17.694 26.9126L13.5312 31.0197L21.5563 39.1108L23.6794 37.037L19.3368 32.5818L26.3567 34.4346L28.4634 32.3767ZM20.5874 31.2658C19.4075 32.4162 19.2482 32.507 19.2482 32.507C19.2482 32.507 17.3985 30.609 17.333 30.5419C17.2674 30.4747 18.6557 29.2832 18.8744 29.0694C18.9671 28.9787 19.8315 28.4142 20.5469 29.1479C20.5469 29.1479 21.7667 30.1133 20.5874 31.2658Z" fill="#487B6C"/>
<path d="M38.9552 9.92394L37.0983 8.04959L45.2048 0L47.858 2.67773L44.9375 8.43204L50.8917 5.73996L53.4445 8.3172L45.338 16.3668L43.3812 14.3919L47.6603 10.1434L41.8065 12.8021L40.5965 11.5804L43.3172 5.72561L38.9552 9.92394Z" fill="#487B6C"/>
<path d="M53.0307 24.1314L47.4099 18.4586L55.5169 10.409L61.1536 16.0987L59.5159 17.7249L55.9845 14.1608L54.6638 15.4717L57.4491 18.2832L55.7438 19.9761L52.9754 17.1815L51.2035 18.9405L54.7017 22.4713L53.0307 24.1314Z" fill="#487B6C"/>
<path d="M71.5651 26.6077L73.6539 28.7169L67.5195 34.8075L70.9511 38.2702L68.9785 40.2301L63.4581 34.6578L71.5651 26.6077Z" fill="#487B6C"/>
<path d="M70.4374 41.703L78.5444 33.6534L80.5836 35.7113L72.4766 43.7604L70.4374 41.703Z" fill="#487B6C"/>
<path d="M76.1734 47.4936L74.2664 45.5685L82.3739 37.5194L85.1428 40.3125L82.7769 48.6702L88.1432 43.3414L90 45.2158L81.8935 53.2648L79.4723 50.8224L81.5571 42.0484L76.1734 47.4936Z" fill="#487B6C"/>
<path d="M67.9014 22.9096L62.9776 17.9391L54.8537 25.9723L56.9425 28.0805L61.3717 23.6827L59.7775 30.9422L61.916 33.1011C61.916 33.1011 63.6018 27.9082 63.6536 27.6919C63.6536 27.6919 65.4802 28.6993 67.4846 26.9741C67.4846 26.9741 69.407 25.0987 67.9014 22.9096ZM64.8949 25.2638C64.8949 25.2638 63.8599 25.9595 62.9479 25.0393L61.5232 23.533C61.5232 23.533 63.2444 21.8237 63.4615 21.6079C63.4615 21.6079 64.7879 22.947 64.9538 23.1141C65.1192 23.2813 66.1649 24.0687 64.8949 25.2638Z" fill="#487B6C"/>
</svg>
