<svg width="14" height="14" viewBox="0 0 14 14" fill="none" xmlns="http://www.w3.org/2000/svg">
<path d="M8 5.50001C8 5.22387 7.77614 5.00001 7.5 5.00001H3.5C3.22386 5.00001 3 5.22387 3 5.50001C3 5.77615 3.22386 6.00001 3.5 6.00001H7.5C7.77614 6.00001 8 5.77615 8 5.50001Z" fill="black"/>
<path d="M7.33333 7.50001C7.33333 7.22387 7.10948 7.00001 6.83333 7.00001H3.5C3.22386 7.00001 3 7.22387 3 7.50001C3 7.77615 3.22386 8.00001 3.5 8.00001H6.83333C7.10948 8.00001 7.33333 7.77615 7.33333 7.50001Z" fill="black"/>
<path d="M7.5 9.00001C7.77614 9.00001 8 9.22387 8 9.50001C8 9.77615 7.77614 10 7.5 10H3.5C3.22386 10 3 9.77615 3 9.50001C3 9.22387 3.22386 9.00001 3.5 9.00001H7.5Z" fill="black"/>
<path fill-rule="evenodd" clip-rule="evenodd" d="M3 13.5H11.6667C12.6792 13.5 13.5 12.6792 13.5 11.6667V8.00002C13.5 7.72387 13.2761 7.50002 13 7.50002H10.8333V2.29547C10.8333 1.34654 9.76074 0.794562 8.98856 1.34612L8.87186 1.42947C8.35153 1.80114 7.64672 1.79989 7.12395 1.42648C6.25471 0.805593 5.07862 0.805593 4.20938 1.42648C3.68661 1.79989 2.9818 1.80114 2.46148 1.42947L2.34478 1.34612C1.5726 0.794562 0.5 1.34654 0.5 2.29547V11C0.5 12.3807 1.61929 13.5 3 13.5ZM4.79062 2.24022C5.31217 1.86768 6.02117 1.86768 6.54271 2.24022C7.41074 2.86023 8.58263 2.86497 9.4531 2.24321L9.56979 2.15985C9.68011 2.08106 9.83333 2.15991 9.83333 2.29547V11.6667C9.83333 11.9668 9.90543 12.25 10.0332 12.5H3C2.17157 12.5 1.5 11.8284 1.5 11V2.29547C1.5 2.15991 1.65323 2.08106 1.76354 2.15985L1.88024 2.24321C2.7507 2.86497 3.9226 2.86023 4.79062 2.24022ZM10.8333 11.6667V8.50002H12.5V11.6667C12.5 12.1269 12.1269 12.5 11.6667 12.5C11.2064 12.5 10.8333 12.1269 10.8333 11.6667Z" fill="black"/>
</svg>
