<svg width="30" height="46" viewBox="0 0 30 46" fill="none" xmlns="http://www.w3.org/2000/svg">
<path fill-rule="evenodd" clip-rule="evenodd" d="M29.5542 20.0141L29.5402 20.5365L29.5542 21.0897L29.5409 21.613L29.5542 22.1654L29.5415 22.6922L29.5541 23.241L29.2048 38.5215C29.1219 42.147 26.3644 45.1494 22.7591 45.5398C17.6231 46.096 12.4421 46.096 7.30609 45.5398C3.70074 45.1494 0.943327 42.147 0.860444 38.5215L0.511117 23.241L0.523746 22.6886L0.511156 22.1654L0.524396 21.6152L0.51105 21.0897L0.525041 20.5389L0.510925 20.0141L0.863744 6.89582C0.868667 6.71279 0.881531 6.53167 0.902014 6.35278L0.910036 6.27714L0.916402 6.21618C1.08982 4.44332 2.07226 2.89707 3.50398 1.96916C3.6108 1.89813 3.72012 1.83047 3.8318 1.76637C3.94104 1.70172 4.05255 1.6404 4.16618 1.58257C4.86878 1.21176 5.6529 0.971428 6.48759 0.894594C12.1722 0.371317 17.8929 0.371317 23.5775 0.894594C24.4109 0.971306 25.1939 1.211 25.8956 1.58079C26.0092 1.63855 26.1208 1.69978 26.23 1.76434C26.3452 1.83037 26.4579 1.90016 26.568 1.97356C27.9921 2.89939 28.9702 4.43761 29.1473 6.20155L29.1641 6.36139C29.184 6.53748 29.1965 6.71573 29.2014 6.89583L29.5542 20.0141ZM25.9487 6.72075L26.2864 21.4928L26.0127 37.6545C25.9512 39.9421 24.189 41.8224 21.9103 42.0322C17.3348 42.4534 12.7303 42.4534 8.15486 42.0322C5.87609 41.8224 4.11398 39.9421 4.05245 37.6545L3.7788 21.4941L4.11653 6.72075C4.11726 6.68896 4.11858 6.65732 4.12048 6.62582C4.24845 5.76041 4.74998 5.01339 5.46107 4.55977C5.73045 4.41933 6.02935 4.3262 6.34731 4.29177C12.1206 3.66655 17.9446 3.66655 23.7179 4.29177C24.0357 4.32619 24.3345 4.41926 24.6038 4.5596C25.3152 5.01333 25.8169 5.76071 25.9448 6.62654C25.9466 6.6578 25.9479 6.68921 25.9487 6.72075ZM15.0326 39.0465C16.8148 39.0465 18.2595 37.6017 18.2595 35.8196C18.2595 34.0374 16.8148 32.5927 15.0326 32.5927C13.2505 32.5927 11.8057 34.0374 11.8057 35.8196C11.8057 37.6017 13.2505 39.0465 15.0326 39.0465Z" fill="#10BB87"/>
</svg>
