<svg width="12" height="15" viewBox="0 0 12 15" fill="none" xmlns="http://www.w3.org/2000/svg">
<path fill-rule="evenodd" clip-rule="evenodd" d="M0.349572 5.90449C0.58579 3.03875 2.98056 0.833252 5.85602 0.833252H6.14398C9.01944 0.833252 11.4142 3.03875 11.6504 5.90449C11.7773 7.44392 11.3018 8.97251 10.324 10.1683L7.12865 14.0762C6.54531 14.7896 5.45468 14.7896 4.87135 14.0762L1.67597 10.1683C0.6982 8.97252 0.222679 7.44392 0.349572 5.90449ZM5.85602 1.83325C3.50099 1.83325 1.53966 3.63957 1.34619 5.98664C1.24058 7.26786 1.63635 8.54007 2.45012 9.5353L5.64549 13.4432C5.82872 13.6672 6.17128 13.6672 6.3545 13.4432L9.54988 9.5353C10.3636 8.54007 10.7594 7.26786 10.6538 5.98664C10.4603 3.63957 8.499 1.83325 6.14398 1.83325H5.85602Z" fill="black"/>
<path d="M6.66666 10.6666C6.66666 11.0348 6.36819 11.3333 6 11.3333C5.63181 11.3333 5.33333 11.0348 5.33333 10.6666C5.33333 10.2984 5.63181 9.99992 6 9.99992C6.36819 9.99992 6.66666 10.2984 6.66666 10.6666Z" fill="black"/>
<path fill-rule="evenodd" clip-rule="evenodd" d="M6 5.16659C5.36885 5.16659 4.83333 5.69687 4.83333 6.38087C4.83333 6.65701 4.60947 6.88087 4.33333 6.88087C4.05719 6.88087 3.83333 6.65701 3.83333 6.38087C3.83333 5.17133 4.79019 4.16659 6 4.16659C7.2098 4.16659 8.16666 5.17133 8.16666 6.38087C8.16666 7.33486 7.57451 8.15648 6.73202 8.46546C6.64904 8.4959 6.58155 8.54246 6.54081 8.58781C6.5027 8.63025 6.5 8.65616 6.5 8.66659C6.5 8.94273 6.27614 9.16659 6 9.16659C5.72385 9.16659 5.5 8.94273 5.5 8.66659C5.5 8.05085 5.99563 7.6704 6.3877 7.52661C6.83537 7.36243 7.16666 6.91639 7.16666 6.38087C7.16666 5.69687 6.63114 5.16659 6 5.16659Z" fill="black"/>
</svg>
