<svg width="32" height="38" viewBox="0 0 32 38" fill="none" xmlns="http://www.w3.org/2000/svg">
<path fill-rule="evenodd" clip-rule="evenodd" d="M31.3012 24.0546C30.6616 31.815 24.1766 37.7874 16.3899 37.7874L15.6101 37.7874C7.82338 37.7874 1.3384 31.815 0.698726 24.0546C0.355106 19.8859 1.6428 15.7465 4.29059 12.5083L12.9436 1.92589C14.5233 -0.00599436 17.4767 -0.00600555 19.0563 1.92588L27.7094 12.5083C30.3572 15.7465 31.6449 19.8859 31.3012 24.0546ZM16.3899 35.0795C22.7672 35.0795 28.0785 30.188 28.6024 23.8322C28.8884 20.3626 27.8167 16.9175 25.613 14.2225L16.96 3.64005C16.4638 3.03326 15.5362 3.03326 15.04 3.64005L6.38697 14.2225C4.18328 16.9175 3.11157 20.3626 3.39756 23.8322C3.92145 30.188 9.23271 35.0795 15.6101 35.0795L16.3899 35.0795Z" fill="#10BB87"/>
<path d="M8.77869 21.9909C8.0309 21.9909 7.41347 22.601 7.53017 23.3397C8.10774 26.9955 10.9954 29.8831 14.6512 30.4607C15.3898 30.5774 16 29.96 16 29.2122C16 28.4644 15.3855 27.8743 14.6574 27.7039C12.4952 27.1977 10.7932 25.4957 10.287 23.3334C10.1166 22.6053 9.52648 21.9909 8.77869 21.9909Z" fill="#10BB87"/>
</svg>
