<svg width="32" height="45" viewBox="0 0 32 45" fill="none" xmlns="http://www.w3.org/2000/svg">
<path d="M11.7301 0.466125C10.839 0.466125 10.1166 1.18849 10.1166 2.07958V3.69303H2.58721C1.69612 3.69303 0.973755 4.41539 0.973755 5.30648C0.973755 6.19756 1.69612 6.91993 2.58721 6.91993H29.4781C30.3691 6.91993 31.0915 6.19756 31.0915 5.30648C31.0915 4.41539 30.3691 3.69303 29.4781 3.69303H21.9486V2.07958C21.9486 1.18849 21.2262 0.466125 20.3352 0.466125H11.7301Z" fill="#10BB87"/>
<path fill-rule="evenodd" clip-rule="evenodd" d="M3.10658 12.6577C3.19736 11.8406 3.88803 11.2225 4.71016 11.2225H27.3551C28.1772 11.2225 28.8679 11.8406 28.9587 12.6577L29.3892 16.5329C30.1698 23.5575 30.1698 30.6469 29.3892 37.6715L29.3469 38.053C29.037 40.8414 26.876 43.0648 24.0975 43.4538C18.747 44.2028 13.3182 44.2028 7.96769 43.4538C5.18925 43.0648 3.02821 40.8414 2.71839 38.053L2.676 37.6715C1.89549 30.6469 1.89549 23.5575 2.676 16.5329L3.10658 12.6577ZM6.15427 14.4494L5.88317 16.8893C5.12897 23.677 5.12897 30.5274 5.88316 37.3152L5.92555 37.6967C6.07249 39.0191 7.09739 40.0736 8.4151 40.258C13.4688 40.9656 18.5964 40.9656 23.6501 40.258C24.9679 40.0736 25.9928 39.0191 26.1397 37.6967L26.1821 37.3152C26.9363 30.5274 26.9363 23.677 26.1821 16.8893L25.911 14.4494H6.15427Z" fill="#10BB87"/>
</svg>
