<svg width="38" height="25" viewBox="0 0 38 25" fill="none" xmlns="http://www.w3.org/2000/svg">
<path d="M14.0847 24.0728C15.0352 24.0728 15.8057 23.3023 15.8057 22.3518V11.8106C15.8057 10.8601 15.0352 10.0896 14.0847 10.0896H13.2242C12.2737 10.0896 11.5032 10.8601 11.5032 11.8106V22.3518C11.5032 23.3023 12.2737 24.0728 13.2242 24.0728H14.0847Z" fill="#10BB87"/>
<path d="M20.1022 0.408875H2.46784C1.51735 0.408875 0.746826 1.1794 0.746826 2.12989V22.3518C0.746826 23.3023 1.51735 24.0728 2.46784 24.0728H2.94824C3.89873 24.0728 4.66925 23.3023 4.66925 22.3518V6.32346C4.66925 5.52894 5.30608 4.83353 6.15091 4.83353H17.4778C19.401 4.83353 20.7475 5.62211 21.5804 6.74318C22.3762 7.81439 22.6429 9.10291 22.6429 10.0896V22.3518C22.6429 23.3023 23.4134 24.0728 24.3639 24.0728H24.841C25.7915 24.0728 26.562 23.3023 26.562 22.3518V7.01C26.562 5.6386 26.4014 3.89347 24.89 2.34851C24.0412 1.48321 23.2706 1.01558 22.5335 0.75326C21.787 0.48757 21.01 0.408875 20.1022 0.408875Z" fill="#10BB87"/>
<path d="M35.5974 24.0728C36.5479 24.0728 37.3184 23.3023 37.3184 22.3518V2.12989C37.3184 1.1794 36.5479 0.408875 35.5974 0.408875H34.7369C33.7864 0.408875 33.0158 1.1794 33.0158 2.12989V22.3518C33.0158 23.3023 33.7864 24.0728 34.7369 24.0728H35.5974Z" fill="#10BB87"/>
</svg>
