<svg width="18" height="14" viewBox="0 0 18 14" fill="none" xmlns="http://www.w3.org/2000/svg">
<path fill-rule="evenodd" clip-rule="evenodd" d="M7.65491 3.96417C7.46183 3.84833 7.22136 3.84529 7.02542 3.95623C6.82947 4.06717 6.70835 4.27494 6.70835 4.50011V9.50011C6.70835 9.72528 6.82947 9.93304 7.02542 10.044C7.22136 10.1549 7.46183 10.1519 7.65491 10.036L11.8216 7.53604C12.0098 7.42309 12.125 7.21965 12.125 7.00011C12.125 6.78057 12.0098 6.57713 11.8216 6.46417L7.65491 3.96417ZM10.2852 7.00011L7.95835 8.39624V5.60398L10.2852 7.00011Z" fill="#487B6C"/>
<path fill-rule="evenodd" clip-rule="evenodd" d="M13.1923 0.867841C10.4017 0.649522 7.59838 0.649522 4.80784 0.867841L2.94059 1.01393C1.80512 1.10276 0.876212 1.95376 0.688515 3.07713C0.254545 5.67444 0.254545 8.32577 0.688515 10.9231C0.876212 12.0464 1.80512 12.8975 2.94059 12.9863L4.80784 13.1324C7.59838 13.3507 10.4017 13.3507 13.1922 13.1324L15.0595 12.9863C16.195 12.8975 17.1239 12.0464 17.3116 10.9231C17.7455 8.32577 17.7455 5.67444 17.3116 3.07713C17.1239 1.95376 16.195 1.10276 15.0595 1.01393L13.1923 0.867841ZM4.90534 2.11403C7.63098 1.90079 10.3691 1.90079 13.0948 2.11403L14.962 2.26012C15.525 2.30417 15.9856 2.72612 16.0787 3.28313C16.4898 5.74406 16.4898 8.25616 16.0787 10.7171C15.9856 11.2741 15.525 11.696 14.962 11.7401L13.0948 11.8862C10.3691 12.0994 7.63098 12.0994 4.90534 11.8862L3.03809 11.7401C2.47508 11.696 2.01449 11.2741 1.92142 10.7171C1.51024 8.25616 1.51024 5.74406 1.92142 3.28313C2.01449 2.72612 2.47508 2.30417 3.03809 2.26012L4.90534 2.11403Z" fill="#487B6C"/>
</svg>
